<?xml version="1.0" standalone="no"?>
<!DOCTYPE svg PUBLIC "-//W3C//DTD SVG 20010904//EN"
 "http://www.w3.org/TR/2001/REC-SVG-20010904/DTD/svg10.dtd">
<svg version="1.0" xmlns="http://www.w3.org/2000/svg"
 width="100.000000pt" height="100.000000pt" viewBox="0 0 100.000000 100.000000"
 preserveAspectRatio="xMidYMid meet">

<g transform="translate(0.000000,100.000000) scale(0.100000,-0.100000)"
fill="#000000" stroke="none">
<path d="M435 888 c-32 -17 -75 -61 -75 -75 0 -7 -4 -13 -10 -13 -5 0 -10 -13
-10 -30 0 -39 16 -39 24 1 9 48 42 86 91 105 43 16 47 16 90 0 49 -19 82 -57
91 -105 8 -40 24 -40 24 -1 0 17 -4 30 -10 30 -5 0 -10 6 -10 13 0 15 -45 59
-77 76 -28 14 -102 14 -128 -1z"/>
<path d="M356 636 c-15 -24 -13 -56 5 -56 5 0 9 -7 9 -15 0 -8 7 -15 15 -15
12 0 15 13 15 55 0 62 -16 73 -44 31z"/>
<path d="M599 633 c-6 -46 1 -83 17 -83 8 0 14 7 14 15 0 8 4 15 9 15 18 0 20
32 5 56 -21 32 -41 31 -45 -3z"/>
<path d="M371 485 c1 -50 3 -54 8 -25 l7 35 17 -32 c10 -18 20 -33 22 -33 3 0
14 15 25 33 l20 32 0 -32 c0 -18 5 -33 10 -33 6 0 10 23 10 50 0 59 -14 64
-37 15 -9 -19 -20 -35 -24 -35 -4 0 -19 19 -33 43 l-26 42 1 -60z"/>
<path d="M517 533 c-11 -10 -8 -103 3 -103 6 0 10 15 11 33 0 28 2 30 12 14
35 -54 33 -53 56 -17 l21 35 0 -32 c0 -18 5 -33 10 -33 6 0 10 23 10 50 0 57
-12 64 -35 21 -23 -45 -32 -45 -58 -1 -13 22 -27 37 -30 33z"/>
</g>
</svg>
